HIERARCHY
ROOT Hips
{
	OFFSET 0.000000 0.000000 0.000000
	CHANNELS 6 Xposition Yposition Zposition Zrotation Yrotation Xrotation 
	JOINT LHipJoint
	{
		OFFSET 0.000000 0.000000 0.000000
		CHANNELS 3 Zrotation Yrotation Xrotation
		JOINT LeftUpLeg
		{
			OFFSET 1.363060 -1.794630 0.839290
			CHANNELS 3 Zrotation Yrotation Xrotation
			JOINT LeftLeg
			{
				OFFSET 2.448110 -6.726130 0.000000
				CHANNELS 3 Zrotation Yrotation Xrotation
				JOINT LeftFoot
				{
					OFFSET 2.562200 -7.039590 0.000000
					CHANNELS 3 Zrotation Yrotation Xrotation
					JOINT LeftToeBase
					{
						OFFSET 0.157640 -0.433110 2.322550
						CHANNELS 3 Zrotation Yrotation Xrotation
						End Site
						{
							OFFSET 0.000000 0.000000 0.000000
						}
					}
				}
			}
		}
	}
	JOINT RHipJoint
	{
		OFFSET 0.000000 0.000000 0.000000
		CHANNELS 3 Zrotation Yrotation Xrotation
		JOINT RightUpLeg
		{
			OFFSET -1.305520 -1.794630 0.839290
			CHANNELS 3 Zrotation Yrotation Xrotation
			JOINT RightLeg
			{
				OFFSET -2.542530 -6.985550 0.000000
				CHANNELS 3 Zrotation Yrotation Xrotation
				JOINT RightFoot
				{
					OFFSET -2.568260 -7.056230 0.000000
					CHANNELS 3 Zrotation Yrotation Xrotation
					JOINT RightToeBase
					{
						OFFSET -0.164730 -0.452590 2.363150
						CHANNELS 3 Zrotation Yrotation Xrotation
						End Site
						{
							OFFSET 0.000000 0.000000 0.000000
						}
					}
				}
			}
		}
	}
	JOINT LowerBack
	{
		OFFSET 0.000000 0.000000 0.000000
		CHANNELS 3 Zrotation Yrotation Xrotation
		JOINT Spine
		{
			OFFSET 0.028270 2.035590 -0.193380
			CHANNELS 3 Zrotation Yrotation Xrotation
			JOINT Spine1
			{
				OFFSET 0.056720 2.048850 -0.042750
				CHANNELS 3 Zrotation Yrotation Xrotation
				JOINT Neck
				{
					OFFSET 0.000000 0.000000 0.000000
					CHANNELS 3 Zrotation Yrotation Xrotation
					JOINT Neck1
					{
						OFFSET -0.054170 1.746240 0.172020
						CHANNELS 3 Zrotation Yrotation Xrotation
						JOINT Head
						{
							OFFSET 0.104070 1.761360 -0.123970
							CHANNELS 3 Zrotation Yrotation Xrotation
							End Site
							{
								OFFSET 0.000000 0.000000 0.000000
							}
						}
					}
				}
				JOINT LeftShoulder
				{
					OFFSET 0.000000 0.000000 0.000000
					CHANNELS 3 Zrotation Yrotation Xrotation
					JOINT LeftArm
					{
						OFFSET 3.362410 1.200890 -0.311210
						CHANNELS 3 Zrotation Yrotation Xrotation
						JOINT LeftForeArm
						{
							OFFSET 4.983000 -0.000000 -0.000000
							CHANNELS 3 Zrotation Yrotation Xrotation
							JOINT LeftHand
							{
								OFFSET 3.483560 -0.000000 -0.000000
								CHANNELS 3 Zrotation Yrotation Xrotation
								JOINT LeftFingerBase
								{
									OFFSET 0.000000 0.000000 0.000000
									CHANNELS 3 Zrotation Yrotation Xrotation
									JOINT LeftHandIndex1
									{
										OFFSET 0.715260 -0.000000 -0.000000
										CHANNELS 3 Zrotation Yrotation Xrotation
										End Site
										{
											OFFSET 0.000000 0.000000 0.000000
										}
									}
								}
								JOINT LThumb
								{
									OFFSET 0.000000 0.000000 0.000000
									CHANNELS 3 Zrotation Yrotation Xrotation
									End Site
									{
										OFFSET 0.000000 0.000000 0.000000
									}
								}
							}
						}
					}
				}
				JOINT RightShoulder
				{
					OFFSET 0.000000 0.000000 0.000000
					CHANNELS 3 Zrotation Yrotation Xrotation
					JOINT RightArm
					{
						OFFSET -3.136600 1.374050 -0.404650
						CHANNELS 3 Zrotation Yrotation Xrotation
						JOINT RightForeArm
						{
							OFFSET -5.241900 -0.000000 -0.000000
							CHANNELS 3 Zrotation Yrotation Xrotation
							JOINT RightHand
							{
								OFFSET -3.444170 -0.000000 -0.000000
								CHANNELS 3 Zrotation Yrotation Xrotation
								JOINT RightFingerBase
								{
									OFFSET 0.000000 0.000000 0.000000
									CHANNELS 3 Zrotation Yrotation Xrotation
									JOINT RightHandIndex1
									{
										OFFSET -0.622530 -0.000000 -0.000000
										CHANNELS 3 Zrotation Yrotation Xrotation
										End Site
										{
											OFFSET 0.000000 0.000000 0.000000
										}
									}
								}
								JOINT RThumb
								{
									OFFSET 0.000000 0.000000 0.000000
									CHANNELS 3 Zrotation Yrotation Xrotation
									End Site
									{
										OFFSET 0.000000 0.000000 0.000000
									}
								}
							}
						}
					}
				}
			}
		}
	}
}
MOTION
Frames: 11
Frame Time: 0.008333
11.374831 16.152448 -22.917798 -14.497977 -53.464884 24.303914 8.472108 3.339202 -0.327278 -35.565596 2.692858 -49.563779 5.638726 18.622810 52.729736 -0.435475 7.351177 -11.616025 0.006800 0.530900 1.458900 -11.392004 -6.320295 0.357725 38.471327 -8.257509 -30.238274 -12.252912 -18.748196 70.867330 0.781812 -11.338520 -1.470034 -0.198400 2.867900 -7.911200 6.703663 3.703051 6.769314 0.492754 5.274800 -4.357722 -1.665867 2.577071 -8.775856 -2.695569 0.403938 -10.084216 4.117296 0.215252 19.611169 1.296800 -0.007300 8.882100 4.216506 -11.142849 3.341245 8.901680 0.796714 -30.751453 28.728362 -34.732134 -10.671107 0.404926 -1.742929 22.032856 -49.042107 30.282894 -32.190500 -7.125000 0.000000 0.000000 -72.054400 48.537300 -12.427200 -2.703885 11.786727 3.424275 -22.287504 11.856073 -23.159620 -32.949498 40.742770 -11.305308 -0.243272 0.475269 -43.919420 17.273507 24.558328 7.153200 7.125000 0.000000 0.000000 27.500500 -6.918600 27.461000 
11.212200 16.168636 -22.894488 -13.594436 -52.884096 23.382520 8.410165 3.362307 -0.293659 -35.799733 2.867800 -48.693857 5.588204 18.465540 52.522002 -0.240856 6.409199 -12.615881 0.212100 2.965000 8.181300 -11.376953 -6.250687 0.397001 36.885941 -8.021751 -30.973259 -13.202040 -19.104736 73.761564 0.327590 -6.622031 -6.440462 -5.085400 -13.479300 41.190300 6.242483 3.522642 7.086085 0.409944 5.038033 -4.424688 -1.726926 2.457071 -9.137698 -2.631474 0.475696 -10.206899 4.129636 0.305496 19.708831 1.292300 0.043600 8.984200 4.195197 -11.204735 3.339098 9.109359 0.386601 -31.004373 29.071068 -35.048020 -10.875012 0.408588 -1.728280 21.214939 -48.862968 30.851693 -32.412600 -7.125000 0.000000 0.000000 -72.756300 48.898700 -13.843600 -2.686935 11.854381 3.385265 -23.251797 11.250561 -24.199109 -32.920479 40.952196 -11.353625 -0.211709 0.473985 -43.449559 16.883959 24.406860 6.940400 7.125000 0.000000 0.000000 27.305400 -7.058400 27.121700 
11.049568 16.178133 -22.868048 -12.535231 -52.245168 22.404370 8.354641 3.390041 -0.239702 -36.159536 2.990200 -47.815899 5.568215 18.309401 52.367638 0.065162 4.716687 -13.565633 1.240600 7.062700 19.901200 -11.376713 -6.196123 0.398212 35.747323 -8.386792 -32.850384 -14.047932 -19.461414 75.988145 0.427816 -6.730409 3.631716 -1.691500 8.191400 -23.297100 5.641160 3.350203 7.303181 0.330813 4.777064 -4.492427 -1.660732 2.341383 -9.564337 -2.781941 0.554714 -9.740585 4.290157 0.403937 19.473121 1.401700 0.084300 8.759500 4.156383 -11.278870 3.348168 9.179390 -0.301206 -31.497414 29.556612 -35.476557 -11.168326 0.430943 -1.696544 21.217814 -49.250896 29.940208 -32.092200 -7.125000 0.000000 0.000000 -71.605500 48.280500 -11.457000 -2.678381 11.906357 3.352987 -24.270029 10.464292 -24.971137 -32.882865 41.196536 -11.406862 -0.183341 0.461366 -43.004133 15.911622 24.145035 6.456200 7.125000 0.000000 0.000000 26.821100 -7.322700 26.341800 
10.893195 16.182557 -22.847652 -12.167704 -51.357498 21.989763 8.321756 3.401350 -0.221145 -36.068144 3.004534 -47.103224 5.538143 18.200168 52.224458 0.179032 4.287832 -14.227326 1.667700 8.136600 23.129800 -11.387227 -6.139455 0.418700 35.001126 -8.547242 -34.244106 -14.770174 -19.765932 78.077033 0.355206 -5.042529 3.921064 -2.253100 9.374400 -26.973700 5.522044 3.153101 7.471263 0.345822 4.513278 -4.532533 -1.538224 2.214125 -9.889977 -2.951286 0.629713 -9.248275 4.343615 0.515287 19.187043 1.457200 0.124200 8.494900 4.132814 -11.351498 3.375829 9.079897 -1.127991 -32.006542 29.957525 -35.798551 -11.403497 0.431795 -1.675844 20.927547 -49.126882 29.697997 -31.780900 -7.125000 0.000000 0.000000 -71.206800 48.148700 -10.887000 -2.641568 11.943153 3.310939 -25.423526 9.823869 -25.846936 -32.638659 41.315146 -11.353648 -0.168621 0.441224 -42.102861 14.029153 24.319287 5.704400 7.125000 0.000000 0.000000 25.800800 -7.215600 25.127400 
10.744161 16.186766 -22.830925 -11.855286 -50.385311 21.453232 8.293719 3.432937 -0.202956 -35.911581 2.949920 -46.361823 5.517682 18.121263 52.156999 0.128927 4.912433 -14.658949 1.111800 6.698900 18.826500 -11.387633 -6.101613 0.425474 34.248519 -8.741876 -35.269875 -15.398693 -19.999663 79.882280 0.354371 -4.721399 2.958231 -2.117600 9.106800 -26.130000 5.489247 2.935450 7.843451 0.381199 4.244469 -4.548143 -1.432748 2.082543 -10.148720 -2.913107 0.688953 -9.289762 4.186318 0.616032 19.255364 1.365000 0.169300 8.554300 4.131546 -11.420588 3.391786 9.060670 -1.903904 -32.475324 30.202820 -35.986834 -11.557013 0.442798 -1.678737 20.043487 -49.333404 30.376641 -32.469600 -7.125000 0.000000 0.000000 -72.241800 48.535900 -12.516700 -2.585149 12.008790 3.262034 -26.528203 9.099269 -26.897223 -32.437255 41.454786 -11.325369 -0.161745 0.418721 -41.217632 11.965149 24.547458 4.886400 7.125000 0.000000 0.000000 24.664100 -7.037100 23.845900 
10.599768 16.182557 -22.813766 -10.970545 -49.468383 20.442805 8.266326 3.477431 -0.170682 -36.120157 2.859382 -45.540694 5.549919 18.056949 52.238884 0.111961 5.215263 -14.936193 0.704300 5.363900 14.949300 -11.381837 -6.050681 0.425465 33.077126 -8.917293 -36.375583 -15.978808 -20.227236 81.487903 0.353190 -4.622355 2.711751 -2.367400 9.592800 -27.667900 5.058260 2.696888 8.292644 0.389359 3.908075 -4.565185 -1.202338 1.943814 -10.456816 -3.038115 0.772571 -9.404204 4.139481 0.756662 19.414587 1.361800 0.221700 8.683400 4.120624 -11.495446 3.395493 9.017667 -2.464669 -32.702740 30.558992 -36.245116 -11.763022 0.497949 -1.624725 19.016987 -48.572039 27.831436 -29.861000 -7.125000 0.000000 0.000000 -68.460800 47.023000 -6.564900 -2.541452 12.074397 3.206321 -27.599007 8.441710 -28.073635 -32.199765 41.545152 -11.272786 -0.148863 0.414403 -40.509983 10.723777 24.910691 4.424900 7.125000 0.000000 0.000000 23.944800 -6.704700 23.164400 
10.454942 16.177809 -22.796607 -10.074198 -48.562289 19.474195 8.241574 3.510045 -0.140274 -36.239647 2.697100 -44.671723 5.616988 18.002573 52.401412 0.178267 4.969385 -15.251961 0.691800 5.317100 14.815200 -11.389275 -5.986934 0.427970 31.774161 -8.918153 -37.563368 -16.485693 -20.469999 82.858696 0.375136 -5.102576 2.312156 -2.037700 8.944200 -25.620800 4.536960 2.442204 8.665875 0.423250 3.524125 -4.579309 -0.809997 1.800113 -10.792188 -3.396677 0.922400 -9.168808 4.266065 0.985839 19.386215 1.493000 0.301000 8.619600 4.096686 -11.567460 3.401455 8.788091 -2.884920 -32.828215 31.056638 -36.627607 -12.081508 0.546252 -1.589825 18.094599 -48.877875 26.602734 -29.158400 -7.125000 0.000000 0.000000 -66.898700 46.097900 -3.464900 -2.502559 12.107407 3.150830 -28.682349 8.169888 -29.399139 -31.744485 41.451216 -11.090269 -0.137892 0.419727 -39.671793 9.548430 25.498877 4.010600 7.125000 0.000000 0.000000 23.239600 -6.159100 22.607000 
10.310657 16.175974 -22.784089 -9.924630 -47.555173 18.957090 8.220547 3.530791 -0.121515 -35.686298 2.472280 -43.768750 5.707633 17.964024 52.609411 0.275495 4.506014 -15.570322 0.784700 5.655200 15.787100 -11.402828 -5.939111 0.428216 30.967800 -8.818009 -38.462838 -16.871274 -20.667884 83.915527 0.431958 -6.280247 0.987120 -1.067800 6.569400 -18.445700 4.535591 2.212976 9.147415 0.487983 3.242466 -4.556359 -0.617923 1.672453 -11.058556 -3.429651 1.041505 -8.938607 4.243773 1.153701 19.258458 1.481700 0.380000 8.504800 4.093856 -11.629728 3.404517 8.716896 -3.380090 -33.002713 31.621384 -37.095242 -12.453954 0.587006 -1.557000 17.025118 -49.319129 26.140258 -29.154100 -7.125000 0.000000 0.000000 -66.370200 45.664900 -2.087500 -2.452007 12.155453 3.116040 -29.577758 7.744339 -30.685439 -31.341756 41.369857 -10.925507 -0.133729 0.415884 -39.046887 8.115394 25.794369 3.430400 7.125000 0.000000 0.000000 22.421700 -5.869900 21.793800 
10.165939 16.174895 -22.770167 -10.038381 -46.491360 18.624890 8.210850 3.547645 -0.107815 -34.917135 2.170706 -42.924614 5.804690 17.946006 52.847235 0.341411 4.246948 -15.854714 0.646000 5.141600 14.312800 -11.412154 -5.898821 0.427662 30.534431 -8.717653 -39.252105 -17.117277 -20.832676 84.588165 0.505677 -7.663114 -0.357462 -0.707800 5.377100 -14.987300 4.827452 2.012312 9.632614 0.532656 3.041858 -4.522246 -0.659340 1.555868 -11.245976 -3.236536 1.044386 -8.898185 4.073335 1.159721 19.213774 1.349200 0.398000 8.488100 4.103071 -11.694864 3.405730 8.839220 -4.000519 -33.204460 32.170210 -37.555640 -12.805719 0.608378 -1.514138 15.868900 -48.974951 25.641798 -28.415900 -7.125000 0.000000 0.000000 -65.604000 45.341000 -1.048400 -2.404593 12.233243 3.085221 -30.314299 6.704399 -31.615027 -31.226813 41.517918 -10.935819 -0.137143 0.405734 -39.125563 6.825425 25.997981 2.895500 7.125000 0.000000 0.000000 21.689700 -5.653500 21.053400 
10.022625 16.178564 -22.753332 -9.779033 -45.395843 18.326133 8.232915 3.547322 -0.093683 -34.487784 1.627499 -42.322823 5.879355 17.957705 53.064965 0.357183 4.291427 -16.055372 0.389700 4.008400 11.100200 -11.433624 -5.828711 0.438694 30.072356 -8.622849 -40.549847 -17.292103 -21.056023 85.023232 0.594074 -9.049889 -0.825134 -0.978200 6.296000 -17.645700 4.878925 1.817519 9.795761 0.545787 2.800127 -4.549813 -0.658301 1.430993 -11.391172 -3.125880 0.979360 -9.167875 3.875490 1.091719 19.496931 1.219800 0.366200 8.725000 4.110622 -11.759807 3.390127 8.922235 -4.539228 -33.284051 32.680116 -37.954913 -13.135603 0.638764 -1.465536 14.733168 -48.777958 24.548096 -27.314400 -7.125000 0.000000 0.000000 -64.129600 44.515100 1.440500 -2.369492 12.317117 3.035904 -30.982462 5.402483 -32.386574 -31.210299 41.725659 -11.005897 -0.150640 0.401077 -39.572184 5.720675 26.581487 2.468900 7.125000 0.000000 0.000000 21.038000 -5.083600 20.560900 
9.882008 16.185039 -22.735202 -9.128117 -44.348575 17.942326 8.265610 3.521456 -0.080887 -34.330349 0.834401 -41.793353 5.941198 17.969605 53.234684 0.466972 3.735943 -16.328401 0.411200 4.116400 11.404300 -11.466052 -5.720666 0.459608 28.948781 -7.970554 -41.655371 -17.233552 -21.292500 84.796743 0.658160 -9.874405 -2.402950 -0.394100 4.030800 -11.163500 4.609445 1.581921 9.728056 0.562553 2.443641 -4.587995 -0.468887 1.279598 -11.478296 -3.119391 1.026302 -9.387398 3.708402 1.186794 19.762195 1.126200 0.402700 8.929800 4.117863 -11.808376 3.367024 8.893999 -4.736001 -33.151015 33.270470 -38.417187 -13.550732 0.699873 -1.412939 13.297695 -49.633255 23.451564 -27.069000 -7.125000 0.000000 0.000000 -62.837300 43.402600 4.661200 -2.331202 12.377731 2.979335 -31.715733 4.539522 -33.481647 -30.975174 41.737465 -10.933561 -0.149040 0.413736 -39.823485 5.309918 27.204409 2.331100 7.125000 0.000000 0.000000 20.766600 -4.492300 20.500400 
